:version 1.10
:name ASF
:units
  mass 1
  length 1
  angle deg
:documentation
  ASF file generated by Kaydara
:root
  axis xyz
  order  tx ty tz rx ry rz
  position 0 0 0
  orientation 0 0 0
:bonedata
  begin
    id 1
    name RightUpLegDummy
    direction -1 2.30186e-007 8.31532e-007
    length 4.46685
    axis 0 0 0 xyz
  end
  begin
    id 2
    name RightUpLeg
    direction -2.30187e-007 -1 1.24343e-010
    length 16.4045
    axis -3.49089 -0.000906625 0.000286804 xyz
    dof rx ry rz
  end
  begin
    id 3
    name RightLeg
    direction -2.30181e-007 -1 -4.17157e-009
    length 17.5097
    axis 3.68512 0.0193738 -0.131023 xyz
    dof rx ry rz
  end
  begin
    id 4
    name RightFoot
    direction 8.31421e-007 -4.51202e-011 1
    length 6.49508
    axis 4.81691e-005 -0.120479 -0.188788 xyz
    dof rx ry rz
  end
  begin
    id 5
    name RightToes
    direction 0.00124746 -0.014064 0.9999
    length 3.85082
    axis 0.000481921 0.542163 -0.142578 xyz
    dof rx ry rz
  end
  begin
    id 6
    name SpineDummy
    direction 0.0717043 0.9409 -0.331007
    length 10.0032
    axis 0 0 0 xyz
  end
  begin
    id 7
    name Spine
    direction 2.30186e-007 1 4.58806e-011
    length 9.84055
    axis -0.001389 0.000121418 2.40972e-006 xyz
    dof rx ry rz
  end
  begin
    id 8
    name Spine1
    direction 0 0 0
    length 0
    axis -0.001389 0.000121451 1.30017e-006 xyz
    dof rx ry rz
  end
  begin
    id 9
    name HEadDummy
    direction -0.00347485 0.950688 -0.310128
    length 8.00997
    axis -0.001389 0.000121451 1.30017e-006 xyz
  end
  begin
    id 10
    name HEad
    direction -0.0222688 0.980941 0.193023
    length 5.12695
    axis -0.001389 0.000121451 1.30017e-006 xyz
    dof rx ry rz
  end
  begin
    id 11
    name LeftShoulder1Dummy
    direction 0.988871 0.146793 -0.0242004
    length 3.5792
    axis -0.001389 0.000121451 1.30017e-006 xyz
  end
  begin
    id 12
    name LeftShoulder1
    direction 0.993832 0.108932 0.020779
    length 4.16823
    axis -0.001389 0.000121451 1.30017e-006 xyz
    dof rx ry rz
  end
  begin
    id 13
    name LeftArm
    direction 1 3.44807e-006 -8.31404e-007
    length 9.91437
    axis -23.1894 0.134784 0.967509 xyz
    dof rx ry rz
  end
  begin
    id 14
    name LeftForeArm
    direction 1 3.44842e-006 -8.31581e-007
    length 9.08575
    axis -9.91835 -0.06569 -0.177793 xyz
    dof rx ry rz
  end
  begin
    id 15
    name LeftHand
    direction 0.992938 -0.0411636 0.11126
    length 5.32135
    axis -0.00960232 -0.00340091 0.185173 xyz
    dof rx ry rz
  end
  begin
    id 16
    name RightShoulderDummy
    direction -0.988871 0.146793 -0.0241962
    length 3.5792
    axis -0.001389 0.000121451 1.30017e-006 xyz
  end
  begin
    id 17
    name RightShoulder
    direction -0.993832 0.108933 0.0207785
    length 4.16823
    axis 0.215806 0.000203643 -0.0068026 xyz
    dof rx ry rz
  end
  begin
    id 18
    name RightArm
    direction -1 3.90912e-006 8.31284e-007
    length 9.91437
    axis -23.2009 -0.134239 -0.964101 xyz
    dof rx ry rz
  end
  begin
    id 19
    name RightForeArm
    direction -1 3.90882e-006 8.31502e-007
    length 9.08575
    axis -9.92322 0.0658061 0.178867 xyz
    dof rx ry rz
  end
  begin
    id 20
    name RightHand
    direction -0.992843 -0.0414603 0.112003
    length 5.28593
    axis -0.00960638 0.00330671 -0.185228 xyz
    dof rx ry rz
  end
  begin
    id 21
    name LeftUpLegDummy
    direction 1 -2.30186e-007 -8.31532e-007
    length 4.46685
    axis 0 0 0 xyz
  end
  begin
    id 22
    name LeftUpLeg
    direction -2.30187e-007 -1 6.00931e-010
    length 16.4045
    axis -3.48766 0.00143442 -0.000524262 xyz
    dof rx ry rz
  end
  begin
    id 23
    name LeftLeg
    direction -2.30187e-007 -1 1.6669e-009
    length 17.5097
    axis 3.68178 -0.00654042 -0.000285133 xyz
    dof rx ry rz
  end
  begin
    id 24
    name LeftFoot
    direction 8.31532e-007 -4.54478e-011 1
    length 6.49508
    axis 1.87233e-006 4.66016e-005 -8.6538e-006 xyz
    dof rx ry rz
  end
  begin
    id 25
    name LeftToes
    direction 0.00818058 -0.00485161 0.999955
    length 3.85048
    axis 1.06247e-005 4.65869e-005 -8.65513e-006 xyz
    dof rx ry rz
  end
:hierarchy
  begin
    root RightUpLegDummy SpineDummy LeftUpLegDummy
    RightUpLegDummy RightUpLeg
    RightUpLeg RightLeg
    RightLeg RightFoot
    RightFoot RightToes
    SpineDummy Spine
    Spine Spine1
    Spine1 HEadDummy LeftShoulder1Dummy RightShoulderDummy
    HEadDummy HEad
    LeftShoulder1Dummy LeftShoulder1
    LeftShoulder1 LeftArm
    LeftArm LeftForeArm
    LeftForeArm LeftHand
    RightShoulderDummy RightShoulder
    RightShoulder RightArm
    RightArm RightForeArm
    RightForeArm RightHand
    LeftUpLegDummy LeftUpLeg
    LeftUpLeg LeftLeg
    LeftLeg LeftFoot
    LeftFoot LeftToes
  end

:SAMPLES-PER-SECOND 30
:FULLY-SPECIFIED
:DEGREES
123
root  -18.66 29.6088 1.69139 -5.60275 -14.2938 -9.86781
RightUpLeg  -10.3644 -10.1893 15.8703
RightLeg  51.6186 -1.32433 -1.51826
RightFoot  -24.4682 0.170852 1.16552
RightToes  -11.911 -0.0410989 -0.108822
Spine  8.19959 -4.34312 -8.54013
Spine1  15.9845 -8.35459 -15.1507
HEad  -37.1252 -44.5402 38.5091
LeftShoulder1  0 -2.42657e-020 -4.95415e-022
LeftArm  -54.064 -21.7569 -18.9204
LeftForeArm  5.01836 -47.9417 -11.269
LeftHand  0.0581255 5.66464 0.803897
RightShoulder  0 2.42657e-020 1.07489e-018
RightArm  -115.272 44.6599 -18.0677
RightForeArm  68.3978 18.2117 3.25549
RightHand  -2.98059 15.6841 -21.0319
LeftUpLeg  -18.528 -4.82856 6.106
LeftLeg  74.0215 1.96374 5.45937
LeftFoot  -17.7078 -0.285415 -1.83212
LeftToes  -22.7942 1.28829e-006 1.15665e-007
124
root  -19.0064 30.2844 1.69758 -4.43137 -16.3461 -9.74251
RightUpLeg  -8.81305 -11.1794 15.3876
RightLeg  47.0353 1.02005 0.924938
RightFoot  -20.9438 -0.114692 -0.242976
RightToes  -13.9258 -0.0502472 -0.126282
Spine  6.86357 -3.69756 -9.03369
Spine1  13.7841 -7.33864 -15.7585
HEad  -36.4587 -45.5807 38.2921
LeftShoulder1  0 -2.42657e-020 -4.95415e-022
LeftArm  -45.7558 -11.8743 -28.7789
LeftForeArm  3.42212 -37.7897 -7.84353
LeftHand  -0.0562963 5.41287 -1.55883
RightShoulder  0 2.42657e-020 1.07489e-018
RightArm  -108.985 50.23 -3.0223
RightForeArm  67.5567 22.3042 4.07806
RightHand  -4.39858 17.3903 -27.8321
LeftUpLeg  -16.6036 -2.38123 6.94933
LeftLeg  69.1401 2.57823 5.61131
LeftFoot  -16.984 -0.277007 -1.85512
LeftToes  -21.2196 1.28829e-006 1.15665e-007
125
root  -19.236 31.0786 1.71192 -2.4664 -17.7754 -9.95667
RightUpLeg  -7.56993 -12.5346 15.1003
RightLeg  41.5242 3.77789 2.90514
RightFoot  -16.0821 -0.220827 -1.18554
RightToes  -18.0407 -0.0708078 -0.160885
Spine  5.48112 -2.93018 -8.98379
Spine1  11.0569 -5.68392 -16.2086
HEad  -35.2507 -45.5332 39.0313
LeftShoulder1  0 -2.42657e-020 -4.95415e-022
LeftArm  -42.1671 -2.92133 -38.6422
LeftForeArm  13.0545 -29.9131 -5.81392
LeftHand  -0.00631626 1.37106 -0.89333
RightShoulder  0 2.42657e-020 1.07489e-018
RightArm  -93.5044 51.1351 18.5644
RightForeArm  68.2832 33.9717 6.75139
RightHand  -5.16841 17.0763 -33.1059
LeftUpLeg  -14.5208 -1.47178 7.63736
LeftLeg  62.5133 3.41197 5.60792
LeftFoot  -16.3965 -0.267422 -1.85603
LeftToes  -19.6604 1.28829e-006 1.15665e-007
126
root  -19.2886 31.7957 1.70609 -0.543137 -17.8501 -9.55687
RightUpLeg  -7.24362 -13.6866 14.26
RightLeg  37.0646 6.45155 4.21799
RightFoot  -11.3578 -0.183766 -1.47037
RightToes  -23.3875 -0.101136 -0.203485
Spine  4.62732 -2.29836 -8.91546
Spine1  9.15509 -4.23296 -16.7207
HEad  -36.6994 -45.0056 42.5134
LeftShoulder1  0 -2.42657e-020 -4.95415e-022
LeftArm  -41.5945 4.62844 -47.5959
LeftForeArm  21.1055 -23.1797 -4.32334
LeftHand  -0.000200752 0.0483058 -0.738842
RightShoulder  0 2.42657e-020 1.07489e-018
RightArm  -77.3022 46.8234 38.213
RightForeArm  71.8521 47.243 10.924
RightHand  -6.16491 17.5969 -38.0102
LeftUpLeg  -14.0939 -2.55987 7.38071
LeftLeg  57.5351 3.69859 5.03717
LeftFoot  -13.4646 -0.170923 -1.44789
LeftToes  -21.8258 1.28829e-006 1.15665e-007
127
root  -19.2627 32.3628 1.61344 1.04865 -17.6344 -8.83339
RightUpLeg  -7.19148 -12.0584 13.8656
RightLeg  32.9001 7.02106 3.90013
RightFoot  -7.75285 -0.0990949 -1.08491
RightToes  -26.1275 -0.118184 -0.224171
Spine  4.13622 -1.6317 -8.83843
Spine1  7.91283 -2.67368 -17.279
HEad  -39.0356 -44.7485 47.0635
LeftShoulder1  0 -2.42657e-020 -4.95415e-022
LeftArm  -42.694 10.7358 -55.3897
LeftForeArm  25.1711 -18.0283 -3.28418
LeftHand  -0.0271638 1.51232 -2.41672
RightShoulder  0 2.42657e-020 1.07489e-018
RightArm  -63.7284 39.5816 51.8491
RightForeArm  76.6209 57.4852 16.0013
RightHand  -6.66245 16.9189 -42.3916
LeftUpLeg  -15.6199 -3.56031 7.4141
LeftLeg  55.7518 2.0569 2.62788
LeftFoot  -8.67054 -0.0379008 -0.499953
LeftToes  -26.3544 1.28829e-006 1.15665e-007
